<?xml version="1.0" encoding="UTF-8" standalone="no"?>
<!DOCTYPE svg PUBLIC "-//W3C//DTD SVG 1.1//EN"
 "http://www.w3.org/Graphics/SVG/1.1/DTD/svg11.dtd">
<!-- Generated by graphviz version 2.26.0 (20091210.2329)
 -->
<!-- Title: snakemake_dag Pages: 1 -->
<svg width="512pt" height="404pt"
 viewBox="0.00 0.00 512.00 404.00" xmlns="http://www.w3.org/2000/svg" xmlns:xlink="http://www.w3.org/1999/xlink">
<g id="graph1" class="graph" transform="scale(1 1) rotate(0) translate(4 400)">
<title>snakemake_dag</title>
<polygon fill="white" stroke="white" points="-4,5 -4,-400 509,-400 509,5 -4,5"/>
<!-- 0 -->
<g id="node1" class="node"><title>0</title>
<polyline fill="none" stroke="#56a2d8" stroke-width="2" stroke-dasharray="5,2" points="316,-396 176,-396 "/>
<path fill="none" stroke="#56a2d8" stroke-width="2" stroke-dasharray="5,2" d="M176,-396C170,-396 164,-390 164,-384"/>
<polyline fill="none" stroke="#56a2d8" stroke-width="2" stroke-dasharray="5,2" points="164,-384 164,-372 "/>
<path fill="none" stroke="#56a2d8" stroke-width="2" stroke-dasharray="5,2" d="M164,-372C164,-366 170,-360 176,-360"/>
<polyline fill="none" stroke="#56a2d8" stroke-width="2" stroke-dasharray="5,2" points="176,-360 316,-360 "/>
<path fill="none" stroke="#56a2d8" stroke-width="2" stroke-dasharray="5,2" d="M316,-360C322,-360 328,-366 328,-372"/>
<polyline fill="none" stroke="#56a2d8" stroke-width="2" stroke-dasharray="5,2" points="328,-372 328,-384 "/>
<path fill="none" stroke="#56a2d8" stroke-width="2" stroke-dasharray="5,2" d="M328,-384C328,-390 322,-396 316,-396"/>
<text text-anchor="middle" x="246" y="-375.5" font-family="sans" font-size="10.00">bismark_genome_preparation</text>
</g>
<!-- 8 -->
<g id="node9" class="node"><title>8</title>
<polyline fill="none" stroke="#d85656" stroke-width="2" stroke-dasharray="5,2" points="271,-324 223,-324 "/>
<path fill="none" stroke="#d85656" stroke-width="2" stroke-dasharray="5,2" d="M223,-324C217,-324 211,-318 211,-312"/>
<polyline fill="none" stroke="#d85656" stroke-width="2" stroke-dasharray="5,2" points="211,-312 211,-300 "/>
<path fill="none" stroke="#d85656" stroke-width="2" stroke-dasharray="5,2" d="M211,-300C211,-294 217,-288 223,-288"/>
<polyline fill="none" stroke="#d85656" stroke-width="2" stroke-dasharray="5,2" points="223,-288 271,-288 "/>
<path fill="none" stroke="#d85656" stroke-width="2" stroke-dasharray="5,2" d="M271,-288C277,-288 283,-294 283,-300"/>
<polyline fill="none" stroke="#d85656" stroke-width="2" stroke-dasharray="5,2" points="283,-300 283,-312 "/>
<path fill="none" stroke="#d85656" stroke-width="2" stroke-dasharray="5,2" d="M283,-312C283,-318 277,-324 271,-324"/>
<text text-anchor="middle" x="247" y="-303.5" font-family="sans" font-size="10.00">bismark_se</text>
</g>
<!-- 0&#45;&gt;8 -->
<g id="edge18" class="edge"><title>0&#45;&gt;8</title>
<path fill="none" stroke="grey" stroke-width="2" d="M246.252,-359.831C246.359,-352.131 246.486,-342.974 246.605,-334.417"/>
<polygon fill="grey" stroke="grey" points="250.105,-334.461 246.744,-324.413 243.106,-334.364 250.105,-334.461"/>
</g>
<!-- 1 -->
<g id="node2" class="node"><title>1</title>
<polyline fill="none" stroke="#56d87b" stroke-width="2" stroke-dasharray="5,2" points="180,-180 12,-180 "/>
<path fill="none" stroke="#56d87b" stroke-width="2" stroke-dasharray="5,2" d="M12,-180C6,-180 5.92119e-14,-174 4.73695e-14,-168"/>
<polyline fill="none" stroke="#56d87b" stroke-width="2" stroke-dasharray="5,2" points="4.73695e-14,-168 2.36848e-14,-156 "/>
<path fill="none" stroke="#56d87b" stroke-width="2" stroke-dasharray="5,2" d="M2.36848e-14,-156C1.18424e-14,-150 6,-144 12,-144"/>
<polyline fill="none" stroke="#56d87b" stroke-width="2" stroke-dasharray="5,2" points="12,-144 180,-144 "/>
<path fill="none" stroke="#56d87b" stroke-width="2" stroke-dasharray="5,2" d="M180,-144C186,-144 192,-150 192,-156"/>
<polyline fill="none" stroke="#56d87b" stroke-width="2" stroke-dasharray="5,2" points="192,-156 192,-168 "/>
<path fill="none" stroke="#56d87b" stroke-width="2" stroke-dasharray="5,2" d="M192,-168C192,-174 186,-180 180,-180"/>
<text text-anchor="middle" x="96" y="-159.5" font-family="sans" font-size="10.00">bismark_se_methylation_extractor</text>
</g>
<!-- 2 -->
<g id="node3" class="node"><title>2</title>
<polyline fill="none" stroke="#d8a456" stroke-width="2" points="261,-36 231,-36 "/>
<path fill="none" stroke="#d8a456" stroke-width="2" d="M231,-36C225,-36 219,-30 219,-24"/>
<polyline fill="none" stroke="#d8a456" stroke-width="2" points="219,-24 219,-12 "/>
<path fill="none" stroke="#d8a456" stroke-width="2" d="M219,-12C219,-6 225,-1.61846e-14 231,-1.46056e-14"/>
<polyline fill="none" stroke="#d8a456" stroke-width="2" points="231,-1.46056e-14 261,-6.71068e-15 "/>
<path fill="none" stroke="#d8a456" stroke-width="2" d="M261,-6.71068e-15C267,-5.1317e-15 273,-6 273,-12"/>
<polyline fill="none" stroke="#d8a456" stroke-width="2" points="273,-12 273,-24 "/>
<path fill="none" stroke="#d8a456" stroke-width="2" d="M273,-24C273,-30 267,-36 261,-36"/>
<text text-anchor="middle" x="246" y="-15.5" font-family="sans" font-size="10.00">all</text>
</g>
<!-- 1&#45;&gt;2 -->
<g id="edge4" class="edge"><title>1&#45;&gt;2</title>
<path fill="none" stroke="grey" stroke-width="2" d="M96.3008,-143.977C97.5591,-124.116 102.436,-92.3003 120,-72 142.745,-45.7118 180.552,-31.8425 208.83,-24.7785"/>
<polygon fill="grey" stroke="grey" points="209.821,-28.1418 218.772,-22.4735 208.24,-21.3227 209.821,-28.1418"/>
</g>
<!-- 3 -->
<g id="node4" class="node"><title>3</title>
<polyline fill="none" stroke="#56d0d8" stroke-width="2" stroke-dasharray="5,2" points="385,-108 251,-108 "/>
<path fill="none" stroke="#56d0d8" stroke-width="2" stroke-dasharray="5,2" d="M251,-108C245,-108 239,-102 239,-96"/>
<polyline fill="none" stroke="#56d0d8" stroke-width="2" stroke-dasharray="5,2" points="239,-96 239,-84 "/>
<path fill="none" stroke="#56d0d8" stroke-width="2" stroke-dasharray="5,2" d="M239,-84C239,-78 245,-72 251,-72"/>
<polyline fill="none" stroke="#56d0d8" stroke-width="2" stroke-dasharray="5,2" points="251,-72 385,-72 "/>
<path fill="none" stroke="#56d0d8" stroke-width="2" stroke-dasharray="5,2" d="M385,-72C391,-72 397,-78 397,-84"/>
<polyline fill="none" stroke="#56d0d8" stroke-width="2" stroke-dasharray="5,2" points="397,-84 397,-96 "/>
<path fill="none" stroke="#56d0d8" stroke-width="2" stroke-dasharray="5,2" d="M397,-96C397,-102 391,-108 385,-108"/>
<text text-anchor="middle" x="318" y="-94" font-family="sans" font-size="10.00">fastqc_raw</text>
<text text-anchor="middle" x="318" y="-81" font-family="sans" font-size="10.00">sample: adipose_SRX263887</text>
</g>
<!-- 3&#45;&gt;2 -->
<g id="edge6" class="edge"><title>3&#45;&gt;2</title>
<path fill="none" stroke="grey" stroke-width="2" d="M299.831,-71.8314C291.285,-63.2848 280.944,-52.9443 271.62,-43.6198"/>
<polygon fill="grey" stroke="grey" points="273.959,-41.0095 264.413,-36.4133 269.009,-45.9592 273.959,-41.0095"/>
</g>
<!-- 4 -->
<g id="node5" class="node"><title>4</title>
<polyline fill="none" stroke="#56d8a9" stroke-width="2" stroke-dasharray="5,2" points="486,-252 364,-252 "/>
<path fill="none" stroke="#56d8a9" stroke-width="2" stroke-dasharray="5,2" d="M364,-252C358,-252 352,-246 352,-240"/>
<polyline fill="none" stroke="#56d8a9" stroke-width="2" stroke-dasharray="5,2" points="352,-240 352,-228 "/>
<path fill="none" stroke="#56d8a9" stroke-width="2" stroke-dasharray="5,2" d="M352,-228C352,-222 358,-216 364,-216"/>
<polyline fill="none" stroke="#56d8a9" stroke-width="2" stroke-dasharray="5,2" points="364,-216 486,-216 "/>
<path fill="none" stroke="#56d8a9" stroke-width="2" stroke-dasharray="5,2" d="M486,-216C492,-216 498,-222 498,-228"/>
<polyline fill="none" stroke="#56d8a9" stroke-width="2" stroke-dasharray="5,2" points="498,-228 498,-240 "/>
<path fill="none" stroke="#56d8a9" stroke-width="2" stroke-dasharray="5,2" d="M498,-240C498,-246 492,-252 486,-252"/>
<text text-anchor="middle" x="425" y="-231.5" font-family="sans" font-size="10.00">fastqc_after_trimming_se</text>
</g>
<!-- 4&#45;&gt;2 -->
<g id="edge8" class="edge"><title>4&#45;&gt;2</title>
<path fill="none" stroke="grey" stroke-width="2" d="M428.575,-215.842C433.901,-183.154 439.963,-113.912 406,-72 390.355,-52.6937 325.269,-35.2773 283.082,-25.7137"/>
<polygon fill="grey" stroke="grey" points="283.675,-22.2602 273.155,-23.5116 282.159,-29.0941 283.675,-22.2602"/>
</g>
<!-- 5 -->
<g id="node6" class="node"><title>5</title>
<polyline fill="none" stroke="#56b9d8" stroke-width="2" points="209,-108 141,-108 "/>
<path fill="none" stroke="#56b9d8" stroke-width="2" d="M141,-108C135,-108 129,-102 129,-96"/>
<polyline fill="none" stroke="#56b9d8" stroke-width="2" points="129,-96 129,-84 "/>
<path fill="none" stroke="#56b9d8" stroke-width="2" d="M129,-84C129,-78 135,-72 141,-72"/>
<polyline fill="none" stroke="#56b9d8" stroke-width="2" points="141,-72 209,-72 "/>
<path fill="none" stroke="#56b9d8" stroke-width="2" d="M209,-72C215,-72 221,-78 221,-84"/>
<polyline fill="none" stroke="#56b9d8" stroke-width="2" points="221,-84 221,-96 "/>
<path fill="none" stroke="#56b9d8" stroke-width="2" d="M221,-96C221,-102 215,-108 209,-108"/>
<text text-anchor="middle" x="175" y="-87.5" font-family="sans" font-size="10.00">deconvolve_se</text>
</g>
<!-- 5&#45;&gt;2 -->
<g id="edge10" class="edge"><title>5&#45;&gt;2</title>
<path fill="none" stroke="grey" stroke-width="2" d="M192.916,-71.8314C201.344,-63.2848 211.541,-52.9443 220.736,-43.6198"/>
<polygon fill="grey" stroke="grey" points="223.313,-45.9912 227.842,-36.4133 218.329,-41.0761 223.313,-45.9912"/>
</g>
<!-- 6 -->
<g id="node7" class="node"><title>6</title>
<polyline fill="none" stroke="#afd856" stroke-width="2" stroke-dasharray="5,2" points="274,-180 222,-180 "/>
<path fill="none" stroke="#afd856" stroke-width="2" stroke-dasharray="5,2" d="M222,-180C216,-180 210,-174 210,-168"/>
<polyline fill="none" stroke="#afd856" stroke-width="2" stroke-dasharray="5,2" points="210,-168 210,-156 "/>
<path fill="none" stroke="#afd856" stroke-width="2" stroke-dasharray="5,2" d="M210,-156C210,-150 216,-144 222,-144"/>
<polyline fill="none" stroke="#afd856" stroke-width="2" stroke-dasharray="5,2" points="222,-144 274,-144 "/>
<path fill="none" stroke="#afd856" stroke-width="2" stroke-dasharray="5,2" d="M274,-144C280,-144 286,-150 286,-156"/>
<polyline fill="none" stroke="#afd856" stroke-width="2" stroke-dasharray="5,2" points="286,-156 286,-168 "/>
<path fill="none" stroke="#afd856" stroke-width="2" stroke-dasharray="5,2" d="M286,-168C286,-174 280,-180 274,-180"/>
<text text-anchor="middle" x="248" y="-159.5" font-family="sans" font-size="10.00">sortbam_se</text>
</g>
<!-- 6&#45;&gt;5 -->
<g id="edge14" class="edge"><title>6&#45;&gt;5</title>
<path fill="none" stroke="grey" stroke-width="2" d="M229.579,-143.831C220.847,-135.219 210.268,-124.785 200.758,-115.405"/>
<polygon fill="grey" stroke="grey" points="202.993,-112.693 193.415,-108.163 198.077,-117.677 202.993,-112.693"/>
</g>
<!-- 7 -->
<g id="node8" class="node"><title>7</title>
<polyline fill="none" stroke="#56d8c9" stroke-width="2" stroke-dasharray="5,2" points="492,-396 358,-396 "/>
<path fill="none" stroke="#56d8c9" stroke-width="2" stroke-dasharray="5,2" d="M358,-396C352,-396 346,-390 346,-384"/>
<polyline fill="none" stroke="#56d8c9" stroke-width="2" stroke-dasharray="5,2" points="346,-384 346,-372 "/>
<path fill="none" stroke="#56d8c9" stroke-width="2" stroke-dasharray="5,2" d="M346,-372C346,-366 352,-360 358,-360"/>
<polyline fill="none" stroke="#56d8c9" stroke-width="2" stroke-dasharray="5,2" points="358,-360 492,-360 "/>
<path fill="none" stroke="#56d8c9" stroke-width="2" stroke-dasharray="5,2" d="M492,-360C498,-360 504,-366 504,-372"/>
<polyline fill="none" stroke="#56d8c9" stroke-width="2" stroke-dasharray="5,2" points="504,-372 504,-384 "/>
<path fill="none" stroke="#56d8c9" stroke-width="2" stroke-dasharray="5,2" d="M504,-384C504,-390 498,-396 492,-396"/>
<text text-anchor="middle" x="425" y="-382" font-family="sans" font-size="10.00">trimgalore_se</text>
<text text-anchor="middle" x="425" y="-369" font-family="sans" font-size="10.00">sample: adipose_SRX263887</text>
</g>
<!-- 7&#45;&gt;4 -->
<g id="edge12" class="edge"><title>7&#45;&gt;4</title>
<path fill="none" stroke="grey" stroke-width="2" d="M425,-359.762C425,-335.201 425,-291.247 425,-262.354"/>
<polygon fill="grey" stroke="grey" points="428.5,-262.09 425,-252.09 421.5,-262.09 428.5,-262.09"/>
</g>
<!-- 7&#45;&gt;8 -->
<g id="edge20" class="edge"><title>7&#45;&gt;8</title>
<path fill="none" stroke="grey" stroke-width="2" d="M380.083,-359.831C353.391,-349.035 319.621,-335.375 292.779,-324.517"/>
<polygon fill="grey" stroke="grey" points="293.812,-321.16 283.229,-320.654 291.187,-327.649 293.812,-321.16"/>
</g>
<!-- 9 -->
<g id="node10" class="node"><title>9</title>
<polyline fill="none" stroke="#78d856" stroke-width="2" stroke-dasharray="5,2" points="285,-252 209,-252 "/>
<path fill="none" stroke="#78d856" stroke-width="2" stroke-dasharray="5,2" d="M209,-252C203,-252 197,-246 197,-240"/>
<polyline fill="none" stroke="#78d856" stroke-width="2" stroke-dasharray="5,2" points="197,-240 197,-228 "/>
<path fill="none" stroke="#78d856" stroke-width="2" stroke-dasharray="5,2" d="M197,-228C197,-222 203,-216 209,-216"/>
<polyline fill="none" stroke="#78d856" stroke-width="2" stroke-dasharray="5,2" points="209,-216 285,-216 "/>
<path fill="none" stroke="#78d856" stroke-width="2" stroke-dasharray="5,2" d="M285,-216C291,-216 297,-222 297,-228"/>
<polyline fill="none" stroke="#78d856" stroke-width="2" stroke-dasharray="5,2" points="297,-228 297,-240 "/>
<path fill="none" stroke="#78d856" stroke-width="2" stroke-dasharray="5,2" d="M297,-240C297,-246 291,-252 285,-252"/>
<text text-anchor="middle" x="247" y="-231.5" font-family="sans" font-size="10.00">deduplication_se</text>
</g>
<!-- 8&#45;&gt;9 -->
<g id="edge22" class="edge"><title>8&#45;&gt;9</title>
<path fill="none" stroke="grey" stroke-width="2" d="M247,-287.831C247,-280.131 247,-270.974 247,-262.417"/>
<polygon fill="grey" stroke="grey" points="250.5,-262.413 247,-252.413 243.5,-262.413 250.5,-262.413"/>
</g>
<!-- 9&#45;&gt;1 -->
<g id="edge2" class="edge"><title>9&#45;&gt;1</title>
<path fill="none" stroke="grey" stroke-width="2" d="M208.896,-215.831C188.88,-206.287 164.173,-194.506 142.981,-184.401"/>
<polygon fill="grey" stroke="grey" points="144.362,-181.183 133.83,-180.038 141.35,-187.501 144.362,-181.183"/>
</g>
<!-- 9&#45;&gt;6 -->
<g id="edge16" class="edge"><title>9&#45;&gt;6</title>
<path fill="none" stroke="grey" stroke-width="2" d="M247.252,-215.831C247.359,-208.131 247.486,-198.974 247.605,-190.417"/>
<polygon fill="grey" stroke="grey" points="251.105,-190.461 247.744,-180.413 244.106,-190.364 251.105,-190.461"/>
</g>
</g>
</svg>
